<?xml version="1.0" encoding="utf-8"?>
<!-- Generator: Adobe Illustrator 18.0.0, SVG Export Plug-In . SVG Version: 6.00 Build 0)  -->
<!DOCTYPE svg PUBLIC "-//W3C//DTD SVG 1.1//EN" "http://www.w3.org/Graphics/SVG/1.1/DTD/svg11.dtd" [
	<!ENTITY ns_extend "http://ns.adobe.com/Extensibility/1.0/">
	<!ENTITY ns_ai "http://ns.adobe.com/AdobeIllustrator/10.0/">
	<!ENTITY ns_graphs "http://ns.adobe.com/Graphs/1.0/">
	<!ENTITY ns_vars "http://ns.adobe.com/Variables/1.0/">
	<!ENTITY ns_imrep "http://ns.adobe.com/ImageReplacement/1.0/">
	<!ENTITY ns_sfw "http://ns.adobe.com/SaveForWeb/1.0/">
	<!ENTITY ns_custom "http://ns.adobe.com/GenericCustomNamespace/1.0/">
	<!ENTITY ns_adobe_xpath "http://ns.adobe.com/XPath/1.0/">
]>
<svg version="1.1" id="Слой_1" xmlns:x="&ns_extend;" xmlns:i="&ns_ai;" xmlns:graph="&ns_graphs;"
	 xmlns="http://www.w3.org/2000/svg" xmlns:xlink="http://www.w3.org/1999/xlink" x="0px" y="0px" width="127px" height="19px"
	 viewBox="0 0 127 19" enable-background="new 0 0 127 19" xml:space="preserve">
<metadata>
	<sfw  xmlns="&ns_sfw;">
		<slices></slices>
		<sliceSourceBounds  height="16.8" width="122.9" x="-49" y="-8.8" bottomLeftOrigin="true"></sliceSourceBounds>
	</sfw>
</metadata>
<g>
	<path fill="#001485" d="M110.6,16.4v-1.7c-4.6,0-8.2-2.2-8.2-7.1c0-5,3.6-7.1,8.2-7.1h4.1c4.6,0,8.2,2.2,8.2,7.1
		c0,5-3.6,7.1-8.2,7.1v1.7H110.6L110.6,16.4z M114.7,12c2.8,0,3.9-1.9,3.9-4.5s-1-4.5-3.9-4.5V12L114.7,12z M110.6,3
		c-2.8,0-3.9,1.9-3.9,4.5c0,2.5,0.9,4.5,3.9,4.5V3L110.6,3z"/>
	<path fill="#001485" d="M73.6,0.4c3.6,0,7.3,1.5,7.3,5.7s-3.7,5.7-7.3,5.7h-3.2v4.5h-4.1V3l-1.1-2.6L73.6,0.4L73.6,0.4z M70.4,3
		v6.2h3.2c2.1,0,3-1.1,3-3.1c0-2.1-1-3.1-3-3.1H70.4L70.4,3z"/>
	<path fill="#001485" d="M91.4,0c5.3,0,9,2.9,9,8.4s-3.8,8.4-9,8.4c-5.3,0-9-2.9-9-8.4C82.4,2.8,86.2,0,91.4,0L91.4,0z M91.4,2.5
		c-3.4,0-4.7,2.8-4.7,5.9s1.3,5.9,4.7,5.9c3.4,0,4.7-2.9,4.7-5.9C96.1,5.3,94.8,2.5,91.4,2.5L91.4,2.5z"/>
	<polygon fill="#001485" points="62.8,16.4 58.7,16.4 58.7,3 51,3 51,16.4 46.9,16.4 46.9,0.4 62.8,0.4 	"/>
	<polygon fill="#001485" points="39.7,3 39.7,16.4 35.6,16.4 35.6,3 29.9,3 29.9,0.4 44.4,0.4 45.5,3 	"/>
	<polygon fill="#001485" points="32.1,16.4 28,16.4 27,13.9 21.5,13.9 20.4,11.3 25.9,11.3 22.8,3.8 17.7,16.4 13.6,16.4 19.2,2.6 
		18.3,0.4 25.6,0.4 	"/>
	<polygon fill="#001485" points="9.9,3 9.9,16.4 5.8,16.4 5.8,3 0,3 0,0.4 14.5,0.4 15.6,3 	"/>
</g>
</svg>
